<svg xmlns="http://www.w3.org/2000/svg" width="491.2" height="382.3" viewBox="0 0 491.2 382.3" overflow="scroll">
	
	<style> 
		@keyframes spin {
 			0% 		{ transform: rotate(0deg) }
 			100% 	{ transform: rotate(360deg) }
 		}

 		@keyframes spin-reverse {
 			0% {transform: rotate(0deg) }
 			100% {transform: rotate(-360deg) }
 		}

 		@keyframes scale-up {
 			0% 	{ transform: scale(0) }
 			5% 	{ transform: scale(1) }
 			75% { transform: scale(1) }
 			80% { transform: scale(0) }
 		}

		.gear {
 			transform-origin: center;
 			animation: spin linear 6s infinite;
 		}

 		.gear.-reverse {
 			transform-origin: center;
 			animation: spin-reverse linear 6s infinite;
 		}

		.arrow {
			transform: scale(0);
 			transform-origin: left bottom;
 			animation: scale-up ease-in 4s infinite;
			will-change: transform;
		}

		.arrow:nth-child(1) { animation-delay: 0.3s }
 		.arrow:nth-child(2) { animation-delay: 0.6s }
 		.arrow:nth-child(3) { animation-delay: 0.9s }
 		.arrow:nth-child(4) { animation-delay: 1.1s }
 		.arrow:nth-child(5) { animation-delay: 1.3s }
 		.arrow:nth-child(6) { animation-delay: 1.5s }
 		.arrow:nth-child(7) { animation-delay: 1.7s }
 		.arrow:nth-child(8) { animation-delay: 1.9s }
 		.arrow:nth-child(9) { animation-delay: 2.1s }
 		.arrow:nth-child(10) { animation-delay: 2.3s }
	</style>

	<ellipse cx="239.5" cy="365.1" opacity=".06" rx="132.8" ry="17.3"/>
	
	<path fill="#127CC1" class="arrow" d="M336.7 34.3c-.5 0-.8-.4-.8-.8v-8.9H327c-.5 0-.8-.4-.8-.8 0-.5.4-.8.8-.8h9.7c.5 0 .8.4.8.8v9.7c.1.5-.3.8-.8.8z"/>
	<path fill="#127CC1" class="arrow" d="M294.5 66.8c-.2 0-.4-.1-.6-.2-.3-.3-.3-.8 0-1.2l40.9-40.9c.3-.3.8-.3 1.2 0 .3.3.3.8 0 1.2l-40.9 40.9c-.2.1-.4.2-.6.2zM352.3 56.5c-.5 0-.8-.4-.8-.8v-8.9h-8.9c-.5 0-.8-.4-.8-.8 0-.5.4-.8.8-.8h9.7c.5 0 .8.4.8.8v9.7c0 .4-.3.8-.8.8z"/>
	<path fill="#127CC1" class="arrow" d="M319.4 79.7c-.2 0-.4-.1-.6-.2-.3-.3-.3-.8 0-1.2l31.6-31.6c.3-.3.8-.3 1.2 0 .3.3.3.8 0 1.2L320 79.4c-.2.2-.4.3-.6.3zM399.9 11.4c-.5 0-.8-.4-.8-.8V1.7h-8.9c-.5 0-.8-.4-.8-.8s.4-.8.8-.8h9.7c.5 0 .8.4.8.8v9.7c0 .4-.4.8-.8.8z"/>
	<path fill="#127CC1" class="arrow" d="M366.6 35c-.2 0-.4-.1-.6-.2-.3-.3-.3-.8 0-1.2l32-32c.3-.3.8-.3 1.2 0 .3.3.3.8 0 1.2l-32 32c-.2.1-.4.2-.6.2zM397.4 63.6c-.5 0-.8-.4-.8-.8v-8.9h-8.9c-.5 0-.8-.4-.8-.8 0-.5.4-.8.8-.8h9.7c.5 0 .8.4.8.8v9.7c0 .4-.3.8-.8.8z"/>
	<path fill="#127CC1" class="arrow" d="M382 69.2c-.2 0-.4-.1-.6-.2-.3-.3-.3-.8 0-1.2l14.1-14.1c.3-.3.8-.3 1.2 0 .3.3.3.8 0 1.2L382.6 69c-.1.2-.4.2-.6.2z"/>
	<g class="arrow">
		<path fill="#127CC1" d="M294.1 97.5c-.5 0-.8-.4-.8-.8v-8.9h-8.9c-.5 0-.8-.4-.8-.8 0-.5.4-.8.8-.8h9.7c.5 0 .8.4.8.8v9.7c0 .4-.3.8-.8.8z"/>
		<path fill="#127CC1" d="M278.7 103.1c-.2 0-.4-.1-.6-.2-.3-.3-.3-.8 0-1.2l14.1-14.1c.3-.3.8-.3 1.2 0 .3.3.3.8 0 1.2l-14.1 14.1c-.2.2-.4.2-.6.2z"/>
	</g>
	<g class="arrow">
		<path fill="#127CC1" d="M337.6 100.7c-.5 0-.8-.4-.8-.8V91h-8.9c-.5 0-.8-.4-.8-.8s.4-.8.8-.8h9.7c.5 0 .8.4.8.8v9.7c0 .5-.4.8-.8.8z"/>
		<path fill="#127CC1" d="M272.4 156.2c-.2 0-.4-.1-.6-.2-.3-.3-.3-.8 0-1.2l63.8-63.9c.3-.3.8-.3 1.2 0 .3.3.3.8 0 1.2L273 156c-.2.1-.4.2-.6.2z"/>
	</g>
	<g class="arrow" >
		<path fill="#127CC1" d="M289.2 37.6c-.5 0-.8-.4-.8-.8v-8.9h-8.9c-.5 0-.8-.4-.8-.8 0-.5.4-.8.8-.8h9.7c.5 0 .8.4.8.8v9.7c0 .4-.4.8-.8.8z"/>
		<path fill="#127CC1" d="M273.8 43.3c-.2 0-.4-.1-.6-.2-.3-.3-.3-.8 0-1.2l14.1-14.1c.3-.3.8-.3 1.2 0 .3.3.3.8 0 1.2l-14.1 14c-.2.2-.4.3-.6.3z"/>
	</g>

	<g class="gear">
		<path fill="#356A86" d="M164.9 175.2h-10.4c-.8-3.7-1.8-7.2-3-10.6l8.7-5c2.1-1.2 2.8-3.9 1.6-6l-8.7-15.1c-1.2-2.1-3.9-2.8-5.9-1.6l-9 5.2c-2.4-2.8-5.1-5.3-7.9-7.7l5-8.7c1.2-2.1.5-4.8-1.6-6l-15.1-8.7c-2.1-1.2-4.7-.5-5.9 1.6l-5.2 9c-3.5-1.2-7-2.1-10.7-2.7v-10.1c0-2.4-1.9-4.4-4.4-4.4H75c-2.4 0-4.4 2-4.4 4.4v10.4c-3.6.7-7.2 1.7-10.6 3l-5-8.7c-1.2-2.1-3.9-2.8-6-1.6l-15.1 8.7c-2.1 1.2-2.8 3.9-1.6 5.9l5.2 9c-2.8 2.4-5.3 5.1-7.7 7.9l-8.7-5c-2.1-1.2-4.8-.5-6 1.6l-8.7 15.1c-1.2 2.1-.5 4.7 1.6 5.9l9 5.2c-1.2 3.5-2.1 7-2.7 10.7h-10c-2.4 0-4.4 2-4.4 4.4v17.4c0 2.4 1.9 4.3 4.4 4.3h10.4c.7 3.7 1.7 7.2 3 10.6l-8.7 5c-2.1 1.2-2.8 3.9-1.6 5.9l8.7 15.1c1.2 2.1 3.9 2.8 6 1.6l9-5.2c2.4 2.8 5.1 5.4 7.9 7.7l-5 8.7c-1.2 2.1-.5 4.7 1.6 5.9l15.1 8.7c2.1 1.2 4.7.5 5.9-1.6l5.2-9c3.5 1.2 7 2.1 10.7 2.7v10.1c0 2.4 1.9 4.3 4.3 4.3h17.4c2.4 0 4.4-2 4.4-4.4v-10.4c3.6-.7 7.2-1.7 10.6-3l5 8.7c1.2 2.1 3.8 2.8 5.9 1.6l15.1-8.7c2.1-1.2 2.8-3.9 1.6-6l-5.2-9c2.8-2.4 5.4-5.1 7.7-7.9l8.7 5c2.1 1.2 4.7.5 6-1.6l8.7-15.1c1.2-2.1.5-4.7-1.6-5.9l-9-5.2c1.2-3.4 2.1-7 2.7-10.7h10c2.4 0 4.3-2 4.3-4.4v-17.4c.2-2-1.8-3.9-4.2-3.9zm-80.3 59.2c-24.9 0-45.2-20.2-45.2-45.2 0-24.9 20.2-45.2 45.2-45.2 24.9 0 45.2 20.2 45.2 45.2 0 25-20.2 45.2-45.2 45.2z"/>
		<path fill="#337EA0" d="M83.1 234.3c-24.2-.8-43.6-20.7-43.6-45.1 0-24.4 19.4-44.3 43.6-45.1v-39.5H75c-2.4 0-4.4 2-4.4 4.4v10.4c-3.6.7-7.2 1.7-10.6 3l-5-8.7c-1.2-2.1-3.9-2.8-6-1.6l-15.1 8.7c-2.1 1.2-2.8 3.9-1.6 5.9l5.2 9c-2.8 2.4-5.3 5.1-7.7 7.9l-8.7-5c-2.1-1.2-4.8-.5-6 1.6l-8.7 15.1c-1.2 2.1-.5 4.7 1.6 5.9l9 5.2c-1.2 3.5-2.1 7-2.7 10.7h-10c-2.4 0-4.4 2-4.4 4.4v17.4c0 2.4 1.9 4.3 4.4 4.3h10.4c.7 3.7 1.7 7.2 3 10.6l-8.7 5c-2.1 1.2-2.8 3.9-1.6 5.9l8.7 15.1c1.2 2.1 3.9 2.8 6 1.6l9-5.2c2.4 2.8 5.1 5.4 7.9 7.7l-5 8.7c-1.2 2.1-.5 4.7 1.6 5.9l15.1 8.7c2.1 1.2 4.7.5 5.9-1.6l5.2-9c3.5 1.2 7 2.1 10.7 2.7v10.1c0 2.4 1.9 4.3 4.3 4.3H83l.1-39.4z"/>
		<path fill="#356A86" d="M84.6 134.2c-30.4 0-55 24.6-55 55s24.6 55 55 55 55-24.6 55-55c0-30.3-24.6-55-55-55zm0 100.2c-24.9 0-45.2-20.2-45.2-45.2 0-24.9 20.2-45.2 45.2-45.2 24.9 0 45.2 20.2 45.2 45.2 0 25-20.2 45.2-45.2 45.2z"/>
		<path fill="#337EA0" d="M84.6 134.2h-1.5v9.8h1.5c24.9 0 45.2 20.2 45.2 45.2 0 24.9-20.2 45.2-45.2 45.2h-1.5v9.8h1.5c30.4 0 55-24.6 55-55 0-30.3-24.6-55-55-55z"/>
	</g>


	<g class="gear -reverse">
		<path fill="#356A86" d="M447.6 337l-6.4-11.7c3.7-3.1 7-6.4 10.1-9.9l11 6.7c2.6 1.6 6.1.8 7.7-1.9l11.6-19c1.6-2.6.8-6.1-1.9-7.7l-11.4-6.9c1.6-4.4 2.9-9 3.8-13.6l12.9.3c3.1.1 5.6-2.4 5.7-5.5l.5-22.3c.1-3.1-2.4-5.6-5.4-5.7l-13.3-.3c-.8-4.6-2-9.2-3.5-13.7l11.3-6.2c2.7-1.5 3.7-4.9 2.2-7.6l-10.7-19.6c-1.5-2.7-4.9-3.7-7.6-2.2l-11.7 6.4c-3.1-3.6-6.4-7-9.9-10.1l6.7-11c1.6-2.7.8-6.1-1.9-7.7l-19-11.6c-2.6-1.6-6-.8-7.6 1.9l-6.9 11.4c-4.4-1.6-9-2.9-13.6-3.8l.3-12.9c.1-3.1-2.4-5.6-5.5-5.7l-22.3-.5c-3.1-.1-5.6 2.4-5.7 5.4l-.3 13.3c-4.6.8-9.2 2-13.7 3.5l-6.2-11.3c-1.5-2.7-4.9-3.7-7.6-2.2L319.7 166c-2.7 1.5-3.7 4.9-2.2 7.6l6.4 11.7c-3.6 3.1-7 6.4-10.1 9.9l-11-6.7c-2.6-1.6-6-.8-7.7 1.9l-11.6 19c-1.6 2.6-.8 6.1 1.9 7.7l11.4 6.9c-1.6 4.4-2.9 9-3.8 13.6l-12.9-.3c-3.1-.1-5.6 2.4-5.7 5.4l-.5 22.3c-.1 3.1 2.4 5.6 5.4 5.7l13.3.3c.8 4.6 2 9.2 3.5 13.7l-11.3 6.2c-2.7 1.5-3.7 4.9-2.2 7.6l10.7 19.6c1.5 2.7 4.9 3.7 7.6 2.2l11.7-6.4c3.1 3.6 6.4 7 9.9 10.1l-6.7 11c-1.6 2.6-.8 6 1.9 7.7l19.1 11.6c2.6 1.6 6 .8 7.7-1.9l6.9-11.4c4.4 1.6 9 2.9 13.6 3.8l-.3 12.9c-.1 3.1 2.4 5.6 5.4 5.7l22.3.5c3.1.1 5.6-2.4 5.7-5.4l.3-13.3c4.6-.8 9.2-2 13.7-3.5l6.2 11.3c1.5 2.7 4.9 3.7 7.6 2.2l19.6-10.7c2.6-1.4 3.6-4.8 2.1-7.5zm-99.5-62.8c-10.4-19-3.4-42.9 15.6-53.3 19-10.4 42.9-3.4 53.3 15.6 10.4 19 3.4 42.9-15.6 53.3-19 10.4-42.9 3.4-53.3-15.6z"/>
		<path fill="#337EA0" d="M330.9 281.4c-14-27.7-3.6-61.8 23.9-76.8s61.7-5.4 77.5 21.3l44.4-24.3-5-9.2c-1.5-2.7-4.9-3.7-7.6-2.2l-11.7 6.4c-3.1-3.6-6.4-7-9.9-10.1l6.7-11c1.6-2.7.8-6.1-1.9-7.7l-19-11.6c-2.6-1.6-6-.8-7.6 1.9l-6.9 11.4c-4.4-1.6-9-2.9-13.6-3.8l.3-12.9c.1-3.1-2.4-5.6-5.5-5.7l-22.3-.5c-3.1-.1-5.6 2.4-5.7 5.4l-.3 13.3c-4.6.8-9.2 2-13.7 3.5l-6.2-11.3c-1.5-2.7-4.9-3.7-7.6-2.2L319.6 166c-2.7 1.5-3.7 4.9-2.2 7.6l6.4 11.7c-3.6 3.1-7 6.4-10.1 9.9l-11-6.7c-2.6-1.6-6-.8-7.7 1.9l-11.6 19c-1.6 2.6-.8 6.1 1.9 7.7l11.4 6.9c-1.6 4.4-2.9 9-3.8 13.6l-12.9-.3c-3.1-.1-5.6 2.4-5.7 5.4l-.5 22.3c-.1 3.1 2.4 5.6 5.4 5.7l13.3.3c.8 4.6 2 9.2 3.5 13.7l-11.3 6.2c-2.7 1.5-3.7 4.9-2.2 7.6l3.8 7 44.6-24.1z"/>
		<path fill="#356A86" d="M382.6 327.9c-26.6 0-50.9-14.5-63.7-37.7-9.3-17-11.4-36.6-5.9-55.1 5.4-18.6 17.8-33.9 34.8-43.2 10.6-5.8 22.6-8.9 34.7-8.9 26.5 0 50.9 14.5 63.6 37.7 19.2 35.1 6.2 79.2-28.8 98.3-10.6 5.8-22.6 8.9-34.7 8.9zm-.1-142.3c-11.6 0-23.2 3-33.4 8.6-16.4 8.9-28.3 23.7-33.5 41.6-5.2 17.9-3.2 36.8 5.7 53.1 12.3 22.4 35.8 36.3 61.3 36.3 11.6 0 23.2-3 33.4-8.6 33.8-18.5 46.2-61 27.8-94.7-12.2-22.4-35.7-36.3-61.3-36.3z"/>
		<path fill="#337EA0" d="M382.7 327.9c-6.9 0-13.7-1-20.5-3-18.6-5.4-33.9-17.8-43.2-34.8l2.3-1.3c8.9 16.4 23.7 28.3 41.6 33.5 17.9 5.2 36.8 3.2 53.1-5.7 33.8-18.5 46.2-61 27.8-94.7l2.3-1.3c19.2 35.1 6.2 79.2-28.8 98.3-10.8 6-22.6 9-34.6 9z"/>
		<path fill="#337EA0" d="M432.2 228.3l-15.2 8.3c10.4 19 3.4 42.9-15.6 53.3-19 10.4-42.9 3.4-53.3-15.6l-15.2 8.3c15 27.4 49.3 37.5 76.7 22.5 27.5-15.1 37.5-49.4 22.6-76.8z"/>
	</g>
	<circle cx="239.5" cy="232.3" r="132.8" fill="#546E7A"/>
	<g fill="#EDC73F">
		<path d="M194.1 264.1c-.6-1.7-.9-2.7-.9-8.1v-10.4c0-6.2-2.1-8.4-6.8-8.4h-3.6v27h-10.4v-66.3H188c10.8 0 15.4 5 15.4 15.2v5.2c0 6.8-2.2 11.3-6.8 13.4 5.2 2.2 6.9 7.2 6.9 14.1V256c0 3.2.1 5.6 1.1 8h-10.5zm-11.4-56.8v20.4h4.1c3.9 0 6.2-1.7 6.2-7v-6.5c0-4.7-1.6-6.8-5.3-6.8h-5zM220.8 225.7h14.3v9.5h-14.3v19.4h18v9.5h-28.4v-66.3h28.4v9.5h-18v18.4zM259.2 197c10.1 0 15.3 6.1 15.3 16.7v2.1h-9.8V213c0-4.7-1.9-6.5-5.2-6.5s-5.2 1.8-5.2 6.5c0 13.6 20.4 16.2 20.4 35.1 0 10.6-5.3 16.7-15.5 16.7s-15.5-6.1-15.5-16.7V244h9.8v4.7c0 4.7 2.1 6.4 5.4 6.4 3.3 0 5.4-1.7 5.4-6.4 0-13.6-20.4-16.2-20.4-35.1 0-10.5 5.2-16.6 15.3-16.6zM277.6 197.8h32.2v9.5h-10.9v56.8h-10.4v-56.8h-10.9v-9.5z"/>
	</g>
</svg>